<?xml version="1.0" standalone="no"?>
<!DOCTYPE svg PUBLIC "-//W3C//DTD SVG 20010904//EN"
 "http://www.w3.org/TR/2001/REC-SVG-20010904/DTD/svg10.dtd">
<svg version="1.0" xmlns="http://www.w3.org/2000/svg"
 width="849.000000pt" height="849.000000pt" viewBox="0 0 849.000000 849.000000"
 preserveAspectRatio="xMidYMid meet">

<g transform="translate(0.000000,849.000000) scale(0.100000,-0.100000)"
fill="#000000" stroke="none">
<path d="M4797 6796 c-59 -25 -100 -53 -152 -103 -58 -57 -58 -56 -40 -115
l17 -54 -31 -58 c-24 -45 -31 -72 -31 -113 0 -45 -6 -61 -39 -111 -64 -94 -91
-152 -91 -196 0 -45 27 -99 59 -116 12 -6 21 -16 21 -23 0 -7 13 -33 29 -58
15 -25 33 -63 39 -85 7 -22 10 -27 8 -11 -4 33 -3 33 37 3 38 -28 89 -46 130
-46 l30 0 -44 31 c-65 47 -97 78 -134 134 -60 90 -71 195 -20 195 19 0 24 -7
29 -42 14 -84 61 -130 140 -135 39 -3 59 1 84 16 41 26 72 77 72 119 0 36 16
48 55 38 20 -5 25 -13 25 -37 0 -16 7 -45 14 -64 l15 -35 -70 0 c-67 0 -69 -1
-69 -25 0 -28 5 -30 40 -10 26 14 75 10 97 -8 9 -6 15 -4 19 7 5 14 9 14 37
-1 44 -23 111 -21 145 4 39 29 72 81 72 114 0 22 5 29 20 29 35 0 45 -46 24
-110 -10 -30 -18 -61 -17 -67 0 -7 -3 -11 -7 -8 -4 3 -23 -18 -41 -45 -36 -52
-104 -96 -186 -121 -48 -14 -48 -23 -1 -33 18 -3 42 -16 55 -28 18 -17 26 -19
35 -10 15 15 53 16 78 2 13 -7 25 -4 46 12 16 12 32 27 36 33 5 6 8 6 8 -2 0
-6 -14 -23 -31 -37 -35 -30 -31 -33 11 -11 42 21 90 126 90 195 0 13 9 47 21
75 20 49 20 54 6 111 -16 61 -13 73 27 87 6 2 -1 14 -15 25 -43 35 -61 93 -53
173 3 37 4 83 0 102 -7 39 -60 97 -88 97 -15 0 -18 4 -13 18 12 28 24 95 25
136 0 33 -6 45 -39 76 -22 21 -73 52 -118 70 -70 30 -90 34 -193 37 -104 3
-120 1 -173 -21z m278 -1 c33 -8 89 -30 125 -48 51 -25 69 -40 84 -70 10 -21
15 -41 12 -44 -3 -4 -23 7 -44 24 -171 137 -366 148 -555 32 -68 -42 -67 -36
3 22 112 94 230 121 375 84z m7 -95 c62 -23 208 -119 208 -137 0 -26 -21 -63
-36 -63 -9 0 -42 16 -73 34 -99 61 -150 78 -224 79 -64 0 -77 -4 -180 -57
-104 -52 -113 -55 -125 -39 -27 38 -26 64 4 89 39 31 139 84 188 100 64 20
177 17 238 -6z m-150 -205 c-106 -19 -140 -37 -281 -148 -34 -27 -66 -47 -72
-45 -12 4 95 92 174 142 62 40 141 64 207 64 39 0 36 -2 -28 -13z m286 -129
c14 -13 17 -37 18 -116 0 -55 -2 -100 -4 -100 -3 0 -20 9 -39 21 -33 21 -91
28 -113 14 -9 -6 -9 -9 0 -15 9 -6 6 -10 -8 -15 -12 -3 -34 -21 -49 -39 -25
-29 -32 -32 -73 -28 -39 3 -49 9 -72 43 l-27 39 25 27 c15 16 43 48 63 73 59
73 64 78 111 100 54 25 141 23 168 -4z m-279 -53 c-8 -10 -16 -20 -20 -23 -3
-3 -18 -22 -34 -43 -33 -45 -53 -57 -78 -48 -15 6 -11 12 25 38 24 18 59 46
78 62 40 35 49 39 29 14z m-302 -149 c-3 -3 -12 -4 -19 -1 -8 3 -5 6 6 6 11 1
17 -2 13 -5z m128 -4 c-3 -5 -18 -10 -33 -9 l-27 1 25 8 c35 11 42 11 35 0z
m524 -64 c-1 -15 -28 46 -28 64 0 8 6 0 14 -19 8 -18 15 -38 14 -45z m-661 46
c18 -12 4 -42 -19 -42 -14 0 -19 7 -19 25 0 25 14 31 38 17z m214 -4 c74 -60
58 -178 -29 -215 -98 -40 -200 49 -172 151 12 45 33 62 50 43 11 -12 16 -12
27 0 22 22 77 16 111 -13 40 -34 40 -21 0 17 -30 28 -19 42 13 17z m367 -4
c29 -21 13 -41 -19 -24 -12 6 -24 9 -26 7 -6 -6 50 -47 63 -47 4 0 1 4 -7 10
-12 8 -12 10 3 16 26 9 39 -7 44 -58 4 -34 0 -50 -19 -78 -32 -47 -63 -62
-123 -57 -41 4 -54 10 -76 37 -53 63 -43 150 23 190 40 24 105 26 137 4z
m-690 -126 c-1 -40 -4 -57 -10 -47 -14 22 -9 109 7 109 1 0 3 -28 3 -62z m842
-131 c-13 -13 -15 1 -4 30 7 17 8 17 11 -1 2 -10 -1 -23 -7 -29z"/>
<path d="M4730 6080 c-29 -29 -27 -94 2 -114 60 -42 138 11 112 77 -3 9 -14
12 -30 9 -26 -5 -33 15 -12 36 9 9 5 12 -20 12 -19 0 -40 -8 -52 -20z m75 -79
c0 -22 -32 -38 -46 -24 -9 9 -9 16 1 28 15 19 45 16 45 -4z"/>
<path d="M5120 6126 c0 -2 7 -6 15 -10 8 -3 15 -1 15 4 0 6 -7 10 -15 10 -8 0
-15 -2 -15 -4z"/>
<path d="M5085 6110 c-3 -6 1 -7 9 -4 18 7 21 14 7 14 -6 0 -13 -4 -16 -10z"/>
<path d="M5119 6083 c-1 -5 -1 -15 0 -25 2 -22 -17 -32 -33 -19 -11 9 -15 6
-20 -13 -15 -60 47 -110 103 -83 22 10 26 20 29 59 2 37 -1 51 -17 67 -20 20
-60 29 -62 14z m41 -109 c0 -17 -24 -29 -40 -19 -8 5 -6 13 6 26 18 20 34 17
34 -7z"/>
<path d="M7859 5717 c-8 -8 -21 -12 -30 -10 -10 3 -26 -4 -35 -16 -10 -12 -26
-21 -35 -21 -14 0 -79 -61 -79 -75 0 -3 -9 -14 -21 -26 -11 -11 -18 -27 -15
-35 3 -8 2 -13 -3 -10 -8 5 -41 -67 -41 -89 0 -13 -40 -88 -50 -95 -4 -3 -10
-15 -14 -26 -6 -18 -3 -22 21 -22 40 0 146 78 129 96 -4 4 -12 -1 -17 -11 -11
-18 -27 -21 -46 -9 -12 8 0 100 15 111 4 4 18 28 31 54 12 27 25 46 28 44 4
-5 53 40 53 49 0 3 -10 2 -22 -2 -13 -3 -21 -5 -18 -3 3 2 15 12 26 22 18 15
22 16 20 3 0 -8 4 -14 9 -13 6 1 9 5 7 10 -2 6 34 25 63 33 26 6 78 33 66 34
-8 0 -12 3 -8 6 3 3 11 2 18 -2 7 -4 32 -7 55 -5 47 3 120 -30 165 -73 15 -14
29 -22 32 -19 3 3 18 -4 33 -16 15 -11 33 -21 40 -21 7 0 18 -10 24 -22 11
-22 10 -22 -4 -4 -9 11 -16 15 -16 9 0 -17 28 -35 42 -27 7 4 10 4 6 -1 -11
-12 21 -67 34 -59 8 5 9 1 5 -10 -4 -10 -7 -29 -7 -43 0 -22 -2 -24 -15 -13
-19 16 -32 5 -16 -13 16 -20 41 -108 34 -120 -4 -6 -1 -7 7 -2 10 6 12 4 7 -8
-5 -13 -1 -17 16 -17 13 0 17 3 11 8 -6 4 -12 42 -13 86 -1 44 -6 87 -11 97
-5 9 -7 19 -4 21 11 12 -29 87 -64 120 -33 31 -102 66 -102 52 0 -3 -17 8 -37
24 -61 48 -118 69 -193 71 -48 1 -72 -2 -81 -12z m478 -319 c-3 -8 -6 -5 -6 6
-1 11 2 17 5 13 3 -3 4 -12 1 -19z m-733 -58 c-6 -6 -15 -5 -24 1 -12 9 -12
10 4 5 14 -5 17 -3 12 11 -6 15 -5 16 5 6 8 -8 10 -16 3 -23z"/>
<path d="M4571 5704 c0 -11 3 -14 6 -6 3 7 2 16 -1 19 -3 4 -6 -2 -5 -13z"/>
<path d="M4556 5663 c-6 -14 -5 -15 5 -6 7 7 10 15 7 18 -3 3 -9 -2 -12 -12z"/>
<path d="M7951 5593 c-35 -5 -86 -32 -77 -41 3 -3 12 1 20 8 23 18 110 14 162
-9 25 -11 58 -34 74 -51 18 -20 31 -27 35 -19 4 6 18 9 31 6 13 -2 24 -1 24 4
0 12 -38 30 -54 27 -8 -2 -22 7 -33 18 -26 30 -93 64 -123 62 -14 0 -40 -3
-59 -5z"/>
<path d="M1505 5573 c-51 -3 -66 -7 -55 -14 12 -8 10 -9 -6 -4 -27 7 -146 -18
-206 -44 -87 -37 -171 -133 -211 -241 -20 -54 -21 -64 -5 -54 7 4 8 3 4 -5 -4
-6 -11 -9 -15 -6 -22 13 -29 -243 -10 -338 7 -31 16 -57 21 -57 5 0 7 -4 3 -9
-13 -22 51 -128 113 -189 97 -95 120 -100 632 -132 285 -18 315 -21 347 -31
28 -9 63 -46 70 -74 11 -48 12 -65 3 -70 -5 -3 -10 -20 -10 -36 0 -22 -12 -41
-46 -75 -26 -24 -49 -43 -51 -40 -3 2 -20 -2 -38 -10 -24 -10 -75 -14 -164
-14 -171 0 -276 15 -318 46 -22 17 -33 20 -36 11 -2 -6 -4 -1 -4 13 0 14 -7
49 -14 78 l-14 53 -235 -1 c-129 0 -244 -1 -255 0 -19 0 -20 7 -20 93 0 80 -4
100 -28 152 -35 75 -78 121 -142 151 -92 44 -174 29 -291 -50 -67 -47 -151
-79 -240 -91 -90 -14 -150 -42 -184 -88 -19 -26 -30 -53 -30 -75 0 -19 -9 -45
-20 -59 -29 -37 -25 -84 14 -177 24 -58 34 -96 34 -131 -1 -76 54 -165 101
-165 10 0 27 -16 38 -37 12 -21 38 -54 57 -72 20 -19 36 -39 36 -44 0 -4 -13
-25 -29 -45 -54 -70 -76 -164 -50 -215 6 -12 25 -37 43 -55 l31 -33 -4 -138
-3 -138 30 -6 c29 -6 29 -7 36 -92 3 -47 2 -94 -3 -103 -16 -33 -2 -42 66 -42
63 0 65 1 58 23 -16 52 -16 65 -1 80 9 8 16 26 16 39 0 54 10 68 50 68 37 0
37 -1 43 -45 4 -24 12 -54 19 -65 10 -15 10 -26 1 -51 -7 -18 -10 -36 -7 -40
3 -5 34 -9 70 -9 57 0 64 2 64 19 0 11 -5 23 -10 26 -13 8 -13 75 0 75 6 0 10
24 10 54 0 51 1 54 29 59 26 6 30 12 37 52 3 25 4 85 2 133 l-5 87 39 38 c84
82 79 173 -16 275 l-45 48 30 18 c101 59 160 148 173 260 3 21 7 40 9 43 3 2
19 -20 36 -49 41 -73 105 -143 171 -186 30 -21 57 -37 60 -38 3 0 23 -8 45
-18 85 -38 834 -47 995 -11 81 17 240 87 240 105 0 6 4 9 10 5 9 -6 90 89 90
106 0 5 14 -6 31 -24 17 -17 36 -31 41 -29 5 1 7 -2 4 -6 -20 -32 236 -145
354 -157 21 -2 57 -6 81 -9 88 -12 148 -16 364 -22 222 -6 402 7 510 38 87 25
185 108 202 169 4 13 8 92 10 176 l4 152 -203 3 c-112 2 -213 2 -226 0 -16 -2
-27 -14 -34 -33 -5 -16 -14 -29 -20 -29 -6 0 -7 -7 -4 -16 3 -8 2 -12 -4 -9
-5 3 -23 -1 -39 -10 -24 -12 -68 -15 -215 -15 -112 0 -187 4 -191 10 -3 6 -14
10 -23 10 -9 0 -41 11 -70 25 -43 20 -56 32 -72 67 -19 41 -20 71 -20 676 l0
632 -217 1 c-120 1 -222 0 -228 -1 -5 -1 -17 -3 -25 -4 -12 -2 -16 -27 -18
-136 l-3 -134 -25 37 c-14 22 -30 35 -36 31 -6 -4 -8 -3 -4 4 10 16 -79 86
-159 126 -94 46 -127 58 -169 59 -19 0 -33 4 -31 8 11 16 -467 24 -720 12z
m509 -397 c27 -8 54 -12 60 -9 6 3 8 3 4 -1 -8 -10 24 -44 36 -38 5 3 6 0 2
-6 -7 -12 20 -72 38 -84 8 -6 7 -8 -1 -8 -7 0 -10 -7 -6 -16 5 -14 35 -15 257
-12 l251 3 3 -159 c2 -87 1 -165 -2 -173 -4 -11 -19 -2 -53 34 -27 27 -68 57
-93 67 -25 10 -53 22 -62 27 -15 8 -150 25 -213 27 -64 2 -227 13 -265 17 -25
3 -111 10 -192 14 -137 7 -149 10 -181 34 -19 14 -36 25 -38 24 -2 -1 -3 0 -2
2 1 2 -3 13 -9 25 -7 11 -13 28 -14 35 -7 42 -7 78 0 89 4 7 5 25 2 40 -3 15
-3 21 0 14 5 -10 10 -8 21 7 34 49 77 59 248 60 115 1 174 -3 209 -13z m-1205
-465 c49 -25 107 -91 133 -149 22 -51 34 -160 24 -216 -6 -32 -9 -34 -29 -25
-13 6 -31 23 -42 39 -10 15 -31 35 -47 44 l-28 17 35 34 c53 54 59 122 14 178
-31 40 -42 22 -13 -21 34 -50 28 -95 -21 -139 -19 -18 -43 -33 -53 -33 -10 0
-72 -16 -138 -35 -65 -19 -148 -37 -184 -40 -106 -10 -126 -14 -163 -40 -32
-21 -41 -22 -74 -13 -50 13 -130 57 -137 74 -10 25 6 71 36 108 22 27 45 40
95 56 36 11 73 20 84 20 44 0 175 52 232 91 33 23 76 48 96 55 54 20 136 17
180 -5z m36 -328 l40 -28 -40 -3 c-21 -2 -58 2 -82 8 -55 16 -77 8 -69 -25 4
-17 0 -31 -19 -49 -13 -13 -27 -35 -30 -49 -5 -20 -15 -26 -48 -30 -33 -5 -46
-1 -69 18 -15 13 -33 25 -40 27 -11 4 -10 8 0 21 8 9 11 21 7 27 -16 25 -125
-3 -125 -33 0 -7 -15 -19 -34 -25 -19 -7 -49 -26 -65 -41 l-31 -29 0 30 c0 39
24 78 66 107 25 18 60 26 146 37 62 7 147 25 188 38 102 34 154 34 205 -1z
m-650 -85 c35 -9 44 -16 39 -28 -4 -8 -10 -51 -14 -95 -3 -44 -9 -73 -12 -65
-22 51 -35 109 -31 133 3 16 1 27 -6 27 -17 0 -23 -44 -12 -86 13 -48 14 -54
1 -54 -5 0 -12 16 -16 35 -10 55 -28 57 -21 2 4 -26 3 -47 -1 -47 -13 0 -64
122 -69 167 -4 26 -1 49 7 57 10 13 17 12 51 -9 21 -14 59 -30 84 -37z m560
42 c-3 -5 -15 -10 -26 -10 -10 0 -19 5 -19 10 0 6 12 10 26 10 14 0 23 -4 19
-10z m174 -41 c40 -29 66 -96 56 -146 -10 -56 -29 -86 -74 -117 -36 -25 -47
-28 -100 -24 -78 5 -123 39 -148 109 -17 48 -19 50 -53 47 l-35 -3 -5 -72 c-5
-76 -21 -108 -72 -146 -102 -76 -258 4 -258 133 0 83 59 143 153 156 60 8 89
0 131 -37 29 -25 39 -28 55 -20 11 6 31 11 45 11 19 0 27 7 36 34 6 18 21 43
33 54 58 54 177 65 236 21z m64 -9 c3 -11 1 -20 -4 -20 -5 0 -9 9 -9 20 0 11
2 20 4 20 2 0 6 -9 9 -20z m-513 0 c0 -12 -43 -30 -71 -30 -29 0 -14 18 24 29
43 12 47 13 47 1z m568 -62 c15 -15 16 -83 0 -111 -15 -29 -34 -47 -42 -40
-14 14 -5 74 13 92 19 19 19 19 0 24 -25 7 -26 47 -1 47 10 0 23 -5 30 -12z
m-404 -110 c3 -17 18 -46 32 -65 28 -36 30 -34 -48 -52 -61 -14 -59 -15 -48
15 6 14 10 50 10 80 0 50 2 54 24 54 18 0 25 -7 30 -32z m-447 -30 c13 -12 23
-28 23 -35 0 -28 41 -93 76 -120 49 -37 141 -44 196 -15 34 18 39 18 50 4 34
-40 125 -48 176 -16 12 8 30 31 39 49 16 33 19 35 67 35 56 0 105 23 144 69
l23 26 -4 -56 c-7 -80 -41 -151 -97 -203 -61 -57 -126 -89 -224 -111 -139 -31
-259 -6 -346 72 -62 56 -87 98 -69 119 17 21 3 30 -16 10 -22 -22 -28 -20 -66
11 -54 46 -77 134 -43 167 21 22 43 20 71 -6z m550 -94 c2 -5 -39 -17 -90 -27
-50 -10 -94 -19 -97 -20 -3 -1 -6 3 -8 8 -2 6 36 20 85 31 93 23 105 24 110 8z
m-27 -52 c0 -16 -47 -34 -81 -30 l-34 3 35 17 c37 19 80 24 80 10z m-346 -218
c9 -3 13 -10 10 -15 -3 -5 2 -6 10 -3 12 5 16 0 16 -17 0 -13 -5 -31 -10 -39
-8 -12 -10 -12 -10 -1 0 8 -2 12 -5 10 -7 -8 7 -49 15 -44 4 2 16 -2 26 -10
15 -11 17 -16 7 -26 -7 -7 -13 -21 -13 -30 0 -10 6 -19 13 -22 6 -2 8 -8 4
-13 -5 -5 -15 -1 -23 10 -8 11 -14 15 -14 9 0 -16 26 -35 44 -31 8 2 40 -17
71 -41 l55 -44 0 -158 0 -159 -47 1 c-27 1 -77 6 -113 13 l-65 11 -3 121 -3
122 25 4 c13 3 35 -1 47 -8 32 -18 74 -17 89 1 21 25 -6 70 -67 111 -63 41
-69 52 -55 94 9 24 8 30 -4 30 -8 0 -14 -10 -14 -25 0 -22 -4 -25 -39 -25 -22
0 -43 -4 -46 -10 -4 -6 8 -10 28 -10 25 0 44 -9 69 -32 l35 -33 -22 -37 -21
-38 -34 25 c-93 69 -94 161 -3 283 27 35 25 34 47 26z m396 -16 c0 -10 2 -10
8 -1 10 16 63 -26 93 -73 51 -83 44 -149 -23 -209 l-41 -38 -9 24 c-5 13 -16
31 -24 40 -14 15 -11 20 23 48 22 18 49 31 66 31 18 0 26 4 21 11 -4 7 -20 9
-40 6 -31 -5 -34 -4 -40 28 -10 53 -33 114 -34 88 0 -12 -3 -29 -7 -39 -4 -11
-3 -15 4 -11 12 8 23 -24 23 -68 0 -25 -9 -38 -50 -69 -49 -38 -68 -71 -56
-101 9 -25 35 -29 71 -12 50 24 56 10 53 -124 l-3 -113 -30 -8 c-16 -4 -65
-11 -107 -14 l-78 -7 0 165 0 165 43 31 c87 65 97 77 87 111 -7 25 -5 32 15
45 21 14 22 19 14 51 -10 35 -6 55 12 55 5 0 9 -6 9 -12z m-315 -16 c6 -4 19
-34 29 -67 10 -33 29 -84 42 -113 l23 -52 -34 26 c-19 15 -35 30 -35 35 0 5
-6 9 -14 9 -20 0 -29 17 -21 38 6 16 8 15 21 -2 8 -11 14 -17 14 -14 0 14 -29
60 -45 72 -13 9 -16 20 -10 44 7 33 12 37 30 24z m269 -8 c11 -30 6 -53 -16
-68 -20 -14 -20 -18 -8 -41 13 -25 12 -27 -36 -69 -27 -24 -50 -43 -50 -42 -1
0 13 45 31 99 18 54 35 107 38 118 6 23 32 25 41 3z m-64 -8 c0 -8 -8 -17 -17
-20 -20 -8 -37 15 -20 26 19 12 37 9 37 -6z m-123 -13 c-16 -16 -18 -16 -34 0
-16 16 -15 17 17 17 32 0 33 -1 17 -17z m2 -39 c13 8 17 -10 13 -50 -6 -47
-17 -43 -36 13 -20 57 -20 58 -1 43 8 -6 18 -9 24 -6z m92 -48 l-16 -49 -11
39 c-14 48 -9 62 20 60 22 -1 22 -1 7 -50z m-167 -147 c27 -21 34 -53 15 -65
-11 -6 -89 24 -89 35 0 11 31 51 39 51 5 0 20 -9 35 -21z m302 4 c21 -28 17
-38 -20 -56 -29 -14 -36 -14 -46 -2 -6 8 -8 20 -4 27 13 24 37 48 47 48 5 0
16 -8 23 -17z m-286 -468 c0 -10 -11 -15 -35 -15 -24 0 -35 5 -35 15 0 10 11
15 35 15 24 0 35 -5 35 -15z m240 0 c0 -10 -10 -15 -29 -15 -16 0 -31 6 -35
15 -4 12 3 15 29 15 24 0 35 -5 35 -15z m-250 -55 c10 -18 8 -20 -30 -20 -42
0 -52 12 -22 29 26 16 40 13 52 -9z m241 10 c31 -17 22 -29 -21 -28 -39 0 -40
1 -24 19 20 22 20 22 45 9z"/>
<path d="M755 4296 c-57 -25 -80 -61 -80 -124 0 -93 57 -148 151 -146 140 3
198 193 81 264 -37 23 -107 26 -152 6z m155 -33 c36 -32 50 -95 31 -140 -14
-33 -64 -70 -108 -79 -68 -13 -143 53 -143 126 0 100 144 161 220 93z"/>
<path d="M769 4217 c-32 -22 -59 -70 -47 -83 4 -3 16 0 29 6 13 8 40 10 68 6
43 -5 45 -5 26 10 -12 9 -34 14 -57 12 -49 -4 -48 5 2 37 22 14 40 27 40 30 0
12 -30 3 -61 -18z"/>
<path d="M335 4201 c-52 -23 -77 -61 -77 -116 0 -139 154 -203 252 -105 45 45
57 96 37 155 -27 79 -121 108 -212 66z m146 -17 c62 -32 74 -123 23 -183 -68
-82 -196 -52 -225 53 -28 100 101 183 202 130z"/>
<path d="M390 4141 c-12 -9 -9 -11 15 -11 40 0 75 -10 75 -21 0 -5 -10 -9 -23
-9 -13 0 -33 -9 -45 -20 -23 -22 -29 -40 -12 -40 6 0 10 4 10 10 0 16 53 38
83 33 19 -3 27 1 27 11 0 34 -98 68 -130 47z"/>
<path d="M157 4032 c12 -9 23 -28 25 -42 4 -21 6 -22 12 -7 10 22 -18 67 -42
67 -14 0 -14 -3 5 -18z"/>
<path d="M391 3564 c0 -11 3 -14 6 -6 3 7 2 16 -1 19 -3 4 -6 -2 -5 -13z"/>
<path d="M4825 5569 c-27 -3 -43 -7 -35 -8 12 -1 12 -3 2 -10 -8 -4 -13 -11
-12 -15 0 -3 -4 -14 -9 -24 -9 -15 -11 -15 -31 3 -12 11 -27 20 -33 21 -7 0
-18 2 -24 2 -7 1 -13 9 -13 17 0 13 -54 15 -430 15 l-430 0 0 -435 0 -435 225
0 c173 0 225 3 225 13 0 6 0 123 0 260 l-1 247 219 0 219 0 1 -257 2 -258 250
-3 250 -3 0 220 0 221 248 1 c136 1 256 2 267 3 19 1 20 9 23 205 1 113 -1
208 -5 212 -5 4 -109 9 -232 10 -221 2 -225 2 -232 -20 -6 -15 -17 -21 -39
-21 -20 0 -30 -5 -30 -15 0 -20 -27 -19 -38 1 -5 9 -7 25 -5 35 3 11 1 19 -3
20 -57 4 -94 2 -94 -5 0 -5 -6 -3 -14 3 -11 9 -25 10 -50 2 -20 -5 -36 -6 -36
-2 0 8 -65 8 -135 0z"/>
<path d="M5760 4660 l0 -920 270 0 270 0 0 348 c0 191 0 355 0 365 0 16 23 17
345 17 l345 0 0 -365 0 -365 265 0 265 0 0 250 c0 138 -3 250 -7 251 -5 0 -29
2 -55 4 -77 6 -132 44 -112 77 5 7 7 21 5 32 -1 10 1 22 7 25 5 3 12 18 15 32
6 23 1 31 -31 55 -42 32 -53 45 -46 56 10 15 33 8 91 -27 68 -41 73 -42 73
-12 0 43 12 67 36 73 l24 6 0 162 c0 90 -3 166 -7 170 -10 9 -10 176 -1 182 5
3 8 117 8 255 l0 249 -265 0 -265 0 0 -350 0 -350 -355 0 -355 0 0 350 0 350
-260 0 -260 0 0 -920z"/>
<path d="M7980 5481 c-41 -13 -131 -70 -167 -106 -19 -19 -43 -37 -53 -40 -11
-4 -20 -10 -20 -14 0 -14 -106 -63 -139 -65 -17 0 -27 -4 -21 -10 11 -11 66
-1 104 19 41 22 47 19 32 -15 -29 -71 13 -140 86 -140 37 0 45 -4 59 -28 14
-24 21 -28 51 -24 20 2 39 -1 42 -7 12 -19 44 -12 63 15 16 22 22 24 46 15 44
-17 64 -13 99 18 28 25 33 36 33 74 0 54 -20 80 -83 109 -32 14 -47 17 -55 9
-8 -8 -5 -11 9 -11 13 -1 10 -5 -13 -15 -17 -7 -36 -22 -42 -34 -13 -24 -14
-91 -1 -111 18 -29 -47 -41 -109 -19 -34 12 -38 21 -16 39 25 21 30 79 10 117
-10 18 -22 33 -27 33 -4 0 -8 6 -8 14 0 21 -40 27 -74 10 -23 -12 -16 -2 29
40 60 55 159 116 189 116 9 0 16 5 16 10 0 11 -5 11 -40 1z m-145 -204 c12
-10 14 -16 7 -21 -7 -4 -12 -1 -13 6 -1 18 -17 -22 -18 -44 -1 -30 29 -20 44
15 l13 32 8 -29 c10 -40 -6 -78 -41 -95 -25 -12 -32 -12 -54 0 -14 8 -32 27
-41 42 -13 24 -13 30 0 54 13 24 52 52 71 53 3 0 13 -6 24 -13z m309 -48 c53
-41 18 -129 -51 -129 -30 0 -73 42 -73 72 0 34 13 49 30 38 21 -13 33 -12 24
2 -5 7 -2 9 8 5 12 -4 14 -1 11 14 -7 26 17 25 51 -2z"/>
<path d="M8058 5483 c7 -3 16 -2 19 1 4 3 -2 6 -13 5 -11 0 -14 -3 -6 -6z"/>
<path d="M8125 5462 c6 -4 11 -29 13 -56 2 -55 36 -141 52 -131 5 3 10 8 10
11 0 3 -4 2 -10 -1 -6 -3 -10 4 -10 17 0 13 -5 29 -10 34 -6 6 -11 35 -13 65
-2 52 -10 69 -32 69 -7 0 -7 -3 0 -8z"/>
<path d="M7592 5007 c2 -15 13 -25 34 -31 l31 -9 -24 -55 c-17 -35 -22 -57
-15 -64 6 -6 13 6 21 36 6 26 21 53 36 64 23 18 23 20 7 35 -9 8 -34 22 -55
31 -38 15 -38 15 -35 -7z"/>
<path d="M8310 4965 c-20 -24 -44 -34 -92 -40 -29 -4 -38 -2 -28 4 8 6 11 13
8 17 -8 8 -68 -34 -68 -47 0 -24 22 -50 33 -41 7 5 29 13 51 16 50 10 104 45
111 75 8 30 2 36 -15 16z"/>
<path d="M8310 4825 c-8 -8 -35 -16 -60 -19 -25 -2 -48 -5 -52 -5 -5 -1 -8 -9
-8 -18 0 -15 2 -14 15 3 8 10 15 14 15 8 0 -5 17 -11 38 -12 31 -2 42 2 57 22
10 14 23 22 28 19 6 -3 7 -1 3 5 -10 16 -19 15 -36 -3z"/>
<path d="M7930 4792 c0 -18 -14 -47 -36 -76 -21 -25 -34 -49 -30 -53 7 -7 23
11 61 69 25 38 34 88 15 88 -5 0 -10 -13 -10 -28z"/>
<path d="M7602 4798 c-7 -7 -12 -21 -12 -31 0 -11 -9 -21 -20 -24 -26 -7 -20
-27 9 -31 29 -5 60 -50 41 -62 -7 -4 -12 -23 -11 -41 0 -19 1 -49 2 -68 0 -44
10 -33 15 17 2 22 8 59 13 83 9 38 8 48 -10 72 -16 22 -19 37 -14 63 7 37 5
40 -13 22z"/>
<path d="M7532 4702 c-1 -24 0 -25 9 -9 7 11 7 23 2 28 -5 5 -9 -3 -11 -19z"/>
<path d="M8237 4713 c-10 -10 -8 -25 2 -18 5 3 12 1 16 -5 12 -20 65 0 65 24
0 8 -75 7 -83 -1z"/>
<path d="M7531 4578 c0 -33 2 -38 9 -23 12 28 12 65 0 65 -5 0 -10 -19 -9 -42z"/>
<path d="M7750 4517 c-27 -21 -67 -81 -67 -99 0 -9 4 -15 8 -12 5 2 5 12 2 21
-4 10 -2 14 4 10 6 -4 18 4 27 18 9 14 13 25 9 25 -3 0 4 11 17 25 25 27 25
32 0 12z"/>
<path d="M4700 4000 l0 -260 250 0 250 0 0 260 0 260 -250 0 -250 0 0 -260z"/>
<path d="M7533 4195 c1 -19 2 -35 4 -35 1 0 9 13 17 29 14 26 14 30 0 35 -9 3
-17 6 -19 6 -1 0 -2 -16 -2 -35z"/>
<path d="M1002 3573 c-32 -6 -43 -33 -32 -74 6 -19 10 -84 10 -144 0 -110 7
-135 37 -135 7 0 13 7 13 15 0 8 -4 15 -10 15 -6 0 -10 43 -10 108 0 59 -4
121 -8 137 -14 46 -6 55 49 55 37 0 49 4 49 15 0 15 -43 18 -98 8z"/>
<path d="M5620 3571 l-25 -7 4 -159 c3 -156 9 -185 37 -185 15 0 19 26 5 32
-4 2 -11 69 -14 151 l-5 147 49 0 c37 0 49 4 49 15 0 16 -52 19 -100 6z"/>
<path d="M5950 3567 l-25 -13 3 -134 c4 -159 8 -186 29 -194 23 -9 43 12 23
24 -11 7 -15 36 -17 122 -2 62 -4 127 -5 143 -3 30 -2 30 50 33 36 2 52 7 49
15 -5 17 -77 20 -107 4z"/>
<path d="M4605 3560 c-3 -5 -1 -19 5 -30 9 -16 21 -20 65 -20 29 0 57 5 60 10
4 6 -12 10 -40 10 -38 0 -48 4 -52 20 -6 21 -28 27 -38 10z"/>
<path d="M6410 3550 c0 -18 -7 -20 -60 -20 -33 0 -60 -4 -60 -10 0 -6 32 -10
75 -10 l75 0 0 30 c0 20 -5 30 -15 30 -8 0 -15 -9 -15 -20z"/>
<path d="M7510 3550 c0 -18 -7 -20 -60 -20 -33 0 -60 -4 -60 -10 0 -6 32 -10
75 -10 l75 0 0 30 c0 20 -5 30 -15 30 -8 0 -15 -9 -15 -20z"/>
<path d="M3635 3520 c-4 -6 21 -10 69 -10 41 0 78 5 81 10 4 6 -21 10 -69 10
-41 0 -78 -4 -81 -10z"/>
<path d="M6640 3475 c-7 -9 -29 -15 -51 -15 -49 0 -89 -18 -89 -41 0 -16 3
-16 39 4 l40 22 28 -21 c53 -40 40 -74 -30 -74 -41 0 -87 -35 -87 -65 0 -27
46 -65 80 -65 20 0 30 5 30 15 0 10 -10 15 -28 15 -30 0 -52 16 -52 37 0 17
53 43 90 43 30 0 30 0 30 -55 0 -42 3 -55 15 -55 21 0 22 177 1 205 -12 17
-12 21 5 33 10 7 19 17 19 23 0 14 -26 11 -40 -6z"/>
<path d="M1081 3441 c-13 -13 -18 -27 -14 -43 9 -35 22 -47 64 -58 45 -12 61
-35 48 -69 -9 -22 -13 -23 -64 -18 -30 3 -55 2 -55 -3 0 -15 37 -30 73 -30
105 0 109 126 5 147 -38 8 -53 36 -31 58 15 16 38 16 76 0 12 -5 17 -3 17 8 0
32 -89 38 -119 8z"/>
<path d="M1310 3451 c0 -6 11 -16 24 -21 52 -19 71 -83 41 -139 -14 -29 -40
-45 -55 -36 -4 2 -13 32 -19 65 -9 43 -17 60 -28 60 -16 0 -14 -27 8 -113 12
-46 26 -53 72 -33 96 39 85 197 -15 221 -18 5 -28 3 -28 -4z"/>
<path d="M1470 3441 c0 -11 4 -30 9 -43 6 -13 20 -58 32 -100 21 -74 34 -94
44 -65 2 6 14 46 26 87 l23 75 18 -65 c26 -89 37 -115 48 -104 7 7 70 215 70
231 0 2 -6 3 -14 3 -8 0 -22 -30 -37 -80 -12 -44 -25 -77 -28 -74 -3 2 -14 37
-26 76 -11 39 -25 73 -30 75 -6 2 -22 -34 -36 -79 l-25 -83 -25 79 c-23 76
-49 111 -49 67z"/>
<path d="M1812 3448 c-15 -15 -16 -60 0 -76 9 -9 8 -16 -5 -30 -25 -27 -21
-69 9 -99 22 -22 32 -25 72 -20 70 8 82 28 82 143 0 77 -3 94 -15 94 -12 0
-15 -16 -15 -88 0 -98 -12 -122 -63 -122 -66 0 -78 79 -13 91 31 6 29 24 -4
36 -39 15 -43 53 -5 53 16 0 25 6 25 15 0 18 -50 21 -68 3z"/>
<path d="M2015 3444 c-22 -23 -12 -28 28 -15 26 9 41 9 61 0 31 -14 35 -28 38
-128 2 -49 7 -76 16 -79 9 -3 12 20 12 93 0 89 -2 98 -25 120 -29 30 -104 35
-130 9z"/>
<path d="M2232 3359 c3 -92 5 -103 27 -120 33 -27 104 -26 130 3 25 26 32 63
29 148 -2 52 -6 65 -20 68 -16 3 -18 -6 -18 -90 0 -105 -6 -118 -56 -118 -50
0 -64 28 -64 127 0 69 -3 83 -16 83 -14 0 -15 -14 -12 -101z"/>
<path d="M2463 3453 c-7 -2 -13 -13 -13 -23 0 -17 2 -18 31 -3 39 20 78 9 96
-27 7 -14 13 -60 13 -103 0 -58 3 -78 13 -75 16 6 22 152 7 189 -6 14 -23 31
-36 38 -25 11 -88 14 -111 4z"/>
<path d="M2702 3444 c-12 -8 -22 -24 -22 -35 0 -20 2 -19 31 5 17 14 39 26 50
26 24 0 59 -34 59 -59 0 -22 -19 -31 -66 -31 -24 0 -43 -8 -59 -25 -31 -30
-31 -45 -4 -79 17 -22 28 -26 55 -24 44 4 49 22 7 26 -74 7 -54 68 26 79 l40
5 3 -52 c2 -32 8 -55 16 -58 9 -3 12 20 12 93 0 89 -2 98 -25 120 -29 29 -88
34 -123 9z"/>
<path d="M2917 3453 c-12 -11 -8 -221 4 -229 6 -3 15 -1 19 6 6 9 13 9 28 1
35 -19 81 -13 107 14 23 22 25 32 25 120 0 78 -3 95 -15 95 -12 0 -15 -17 -15
-89 0 -103 -12 -124 -64 -119 -44 4 -66 52 -66 141 0 62 -6 78 -23 60z"/>
<path d="M3162 3343 c2 -82 7 -118 16 -121 8 -2 12 10 12 41 0 49 29 97 59 97
30 0 54 -37 59 -90 6 -62 26 -62 30 1 3 49 -26 109 -53 109 -22 0 -19 10 17
47 27 28 29 33 13 33 -11 0 -43 -23 -72 -52 l-53 -52 0 52 c0 40 -4 52 -15 52
-13 0 -15 -17 -13 -117z"/>
<path d="M3383 3453 c-7 -2 -13 -13 -13 -23 0 -17 2 -18 28 -4 39 20 59 18 87
-11 23 -22 25 -32 25 -110 0 -65 3 -86 13 -83 16 6 22 152 7 189 -6 14 -23 31
-36 38 -25 11 -88 14 -111 4z"/>
<path d="M3612 3444 c-12 -8 -22 -24 -22 -35 0 -25 6 -24 42 6 38 32 51 31 89
-3 26 -23 32 -36 32 -71 0 -73 -53 -109 -118 -79 -34 15 -45 1 -16 -23 52 -43
137 -8 161 67 10 29 9 43 -5 80 -9 24 -26 51 -38 59 -28 20 -97 19 -125 -1z"/>
<path d="M3842 3343 c2 -97 6 -118 18 -118 12 0 16 19 20 88 4 78 8 91 29 108
30 24 46 24 71 -1 17 -17 20 -33 20 -110 0 -73 3 -90 15 -90 12 0 15 17 15 91
0 86 -9 125 -34 141 -17 12 -91 9 -103 -3 -8 -8 -13 -8 -17 0 -4 6 -14 11 -22
11 -12 0 -14 -19 -12 -117z"/>
<path d="M4106 3438 c-20 -29 -20 -43 1 -63 16 -16 16 -18 0 -27 -11 -6 -17
-22 -17 -48 0 -65 67 -99 133 -69 36 16 47 50 47 144 0 69 -3 85 -15 85 -12 0
-15 -16 -15 -83 0 -99 -14 -127 -64 -127 -37 0 -56 15 -56 45 0 26 18 45 41
45 30 0 31 19 2 32 -15 7 -31 17 -35 22 -11 17 4 36 28 36 15 0 24 6 24 15 0
24 -56 19 -74 -7z"/>
<path d="M4313 3453 c-7 -2 -13 -12 -13 -20 0 -10 5 -13 18 -8 47 19 77 17 99
-7 19 -20 23 -37 25 -107 2 -56 7 -86 16 -89 9 -3 12 20 12 93 0 89 -2 98 -25
120 -19 20 -34 25 -72 24 -26 0 -54 -3 -60 -6z"/>
<path d="M4552 3444 c-12 -8 -22 -22 -22 -30 0 -18 14 -18 29 0 33 40 111 20
111 -28 0 -27 -16 -36 -66 -36 -42 0 -74 -30 -74 -69 0 -37 31 -61 77 -61 48
0 44 28 -4 32 -33 3 -38 6 -38 28 0 16 8 29 25 37 27 14 80 17 81 6 3 -45 11
-99 15 -102 2 -3 9 0 15 6 7 7 10 44 8 98 -4 81 -6 88 -32 111 -33 28 -91 32
-125 8z"/>
<path d="M4786 3438 c-20 -29 -20 -43 1 -63 16 -16 16 -18 0 -27 -11 -6 -17
-22 -17 -48 0 -77 93 -108 151 -51 28 28 29 33 29 120 0 74 -3 91 -15 91 -12
0 -15 -16 -15 -83 0 -103 -14 -130 -68 -125 -47 4 -71 42 -45 70 9 10 24 18
35 18 26 0 23 27 -4 36 -44 13 -45 54 -2 54 15 0 24 6 24 15 0 24 -56 19 -74
-7z"/>
<path d="M5010 3352 c0 -107 7 -132 37 -132 7 0 13 7 13 15 0 8 -4 15 -10 15
-6 0 -10 42 -10 105 0 87 -3 105 -15 105 -12 0 -15 -19 -15 -108z"/>
<path d="M5104 3447 c-10 -28 1 -220 14 -225 9 -3 12 15 12 66 0 86 15 130 47
143 34 13 40 12 63 -11 17 -17 20 -33 20 -110 0 -73 3 -90 15 -90 12 0 15 17
15 95 0 88 -2 98 -25 120 -27 28 -91 35 -114 13 -11 -10 -14 -10 -18 0 -6 16
-22 15 -29 -1z"/>
<path d="M5376 3439 c-25 -20 -26 -24 -26 -120 0 -81 3 -99 15 -99 11 0 15 11
15 35 0 29 6 39 30 53 16 9 30 23 30 30 0 16 -11 15 -38 -4 -22 -15 -22 -15
-22 30 0 37 4 48 25 62 26 17 76 12 94 -10 6 -6 11 -52 13 -101 2 -60 7 -90
16 -93 9 -3 12 20 12 95 0 54 -4 103 -8 109 -25 38 -114 46 -156 13z"/>
<path d="M5690 3365 c0 -88 2 -98 25 -120 26 -27 72 -33 105 -15 13 7 21 7 25
0 18 -29 25 1 25 110 0 100 -2 120 -15 120 -12 0 -15 -16 -15 -83 0 -95 -15
-127 -58 -127 -53 1 -62 18 -62 119 0 74 -3 91 -15 91 -12 0 -15 -17 -15 -95z"/>
<path d="M6041 3441 c-36 -27 -18 -45 22 -21 42 26 53 25 82 -5 36 -35 32 -53
-12 -60 -70 -11 -82 -15 -97 -31 -22 -21 -20 -60 4 -84 24 -24 90 -28 90 -5 0
10 -10 15 -34 15 -26 0 -36 5 -41 21 -10 30 15 50 69 56 l46 6 0 -57 c0 -43 3
-56 15 -56 12 0 15 16 15 85 0 46 -5 95 -11 108 -21 47 -103 62 -148 28z"/>
<path d="M6277 3442 c-21 -23 -21 -41 -1 -70 8 -12 11 -22 5 -22 -6 0 -15 -9
-21 -21 -41 -76 78 -144 147 -85 26 23 28 29 31 120 4 92 3 96 -17 96 -20 0
-21 -5 -21 -93 0 -104 -6 -117 -57 -117 -63 0 -82 75 -22 87 38 7 37 28 -2 42
-39 13 -37 45 4 49 15 2 27 9 27 18 0 21 -54 18 -73 -4z"/>
<path d="M6757 3442 c-38 -42 -13 -90 56 -106 36 -8 56 -48 36 -72 -10 -12
-25 -15 -61 -12 -34 4 -48 1 -48 -7 0 -17 23 -25 71 -25 104 0 104 117 0 149
-30 9 -41 17 -41 32 0 28 43 46 76 30 31 -14 42 -8 24 14 -18 22 -93 20 -113
-3z"/>
<path d="M6942 3359 c3 -92 5 -103 27 -120 28 -23 78 -25 109 -3 20 14 22 14
22 -1 0 -9 6 -15 13 -13 19 7 23 238 4 238 -11 0 -16 -21 -19 -85 -5 -95 -21
-125 -68 -125 -47 0 -60 26 -60 123 0 73 -3 87 -16 87 -14 0 -15 -14 -12 -101z"/>
<path d="M7173 3453 c-7 -2 -13 -12 -13 -20 0 -11 6 -14 23 -9 95 27 110 14
117 -111 3 -56 9 -88 18 -91 9 -3 12 20 12 93 0 89 -2 98 -25 120 -19 20 -34
25 -72 24 -26 0 -54 -3 -60 -6z"/>
<path d="M7407 3442 c-36 -39 -13 -84 54 -106 41 -14 58 -39 43 -63 -9 -14
-25 -18 -63 -18 -35 1 -51 -3 -51 -12 0 -31 114 -28 137 4 19 25 16 70 -7 91
-11 10 -38 24 -60 31 -29 9 -40 17 -40 32 0 28 43 46 76 30 31 -14 42 -8 24
14 -18 22 -93 20 -113 -3z"/>
<path d="M6630 3166 c0 -9 5 -16 10 -16 6 0 10 -11 10 -25 0 -16 6 -25 16 -25
12 0 14 9 12 38 -2 30 -7 38 -25 40 -16 2 -23 -2 -23 -12z"/>
<path d="M996 3005 c-20 -21 -11 -40 25 -55 17 -8 29 -20 29 -31 0 -15 -8 -19
-37 -20 -35 0 -36 -1 -15 -11 16 -8 29 -8 48 1 36 16 29 52 -13 70 -18 8 -33
21 -33 28 0 8 12 13 33 13 24 0 28 3 17 10 -21 14 -36 12 -54 -5z"/>
<path d="M1316 3013 c-10 -11 -6 -123 4 -123 6 0 10 11 10 25 0 14 4 25 10 25
5 0 17 -11 26 -25 9 -14 21 -25 26 -25 6 0 3 12 -7 26 -12 19 -14 29 -6 37 13
13 15 44 3 51 -14 9 -60 15 -66 9z m58 -28 c3 -8 -3 -19 -14 -25 -27 -14 -30
-13 -30 15 0 18 5 25 19 25 10 0 21 -7 25 -15z"/>
<path d="M2155 2996 c-3 -12 -4 -41 -2 -66 3 -40 6 -45 30 -47 15 -1 29 2 32
8 4 5 -5 9 -19 9 -19 0 -26 5 -26 20 0 15 7 20 25 20 14 0 25 5 25 10 0 6 -11
10 -25 10 -37 0 -35 37 3 42 26 3 26 4 -6 9 -27 5 -33 2 -37 -15z"/>
<path d="M3180 2952 c0 -66 12 -82 48 -66 14 6 12 8 -10 12 -38 5 -40 42 -3
42 14 0 25 5 25 10 0 6 -11 10 -25 10 -18 0 -25 5 -25 20 0 16 7 20 32 20 39
0 29 13 -12 14 l-30 1 0 -63z"/>
<path d="M3315 3012 c-10 -10 -5 -122 5 -122 6 0 10 11 10 25 0 33 14 32 40
-6 26 -36 40 -31 16 6 -13 20 -14 29 -5 44 17 27 5 48 -30 53 -17 3 -33 2 -36
0z m59 -27 c3 -8 -3 -19 -14 -25 -27 -14 -30 -13 -30 15 0 18 5 25 19 25 10 0
21 -7 25 -15z"/>
<path d="M3488 3009 c-28 -16 -21 -35 18 -58 42 -25 40 -44 -7 -51 -31 -5 -32
-7 -11 -14 12 -4 31 -5 41 -1 42 13 32 67 -14 79 -37 10 -32 36 8 36 24 0 28
3 17 10 -19 12 -30 12 -52 -1z"/>
<path d="M3717 3008 c-8 -5 -5 -8 10 -8 20 0 22 -6 26 -57 l3 -58 2 57 c2 50
5 57 25 60 15 3 11 5 -16 9 -20 3 -43 1 -50 -3z"/>
<path d="M4183 3010 c-47 -19 -40 -107 9 -124 42 -15 78 14 78 63 0 53 -39 80
-87 61z m69 -35 c17 -39 -3 -75 -42 -75 -23 0 -33 6 -40 25 -15 40 3 75 40 75
23 0 33 -6 42 -25z"/>
<path d="M4351 2950 c1 -36 4 -53 6 -37 3 21 10 27 29 27 13 0 24 5 24 10 0 6
-11 10 -25 10 -18 0 -25 5 -25 20 0 15 7 20 25 20 14 0 25 4 25 8 0 4 -13 8
-30 7 l-30 0 1 -65z"/>
<path d="M4607 3008 c-8 -5 -5 -8 10 -8 20 0 22 -6 26 -57 l3 -58 2 57 c2 50
5 57 25 60 15 3 11 5 -16 9 -20 3 -43 1 -50 -3z"/>
<path d="M4759 2997 c-1 -12 -2 -35 -3 -52 -3 -41 11 -65 34 -62 31 5 36 17 7
17 -20 0 -27 5 -27 20 0 15 7 20 25 20 14 0 25 5 25 10 0 6 -11 10 -25 10 -18
0 -25 5 -25 20 0 15 7 20 27 20 32 0 27 7 -10 14 -22 4 -27 1 -28 -17z"/>
<path d="M4922 3010 c-12 -5 -27 -21 -32 -35 -21 -54 33 -111 82 -87 21 10 20
11 -15 11 -30 1 -40 6 -49 26 -19 41 3 75 47 75 22 0 34 4 30 10 -7 12 -32 12
-63 0z"/>
<path d="M5239 3003 c-5 -83 3 -131 10 -68 l6 50 30 -47 c41 -66 55 -62 55 12
0 33 -4 60 -10 60 -5 0 -10 -21 -10 -47 l0 -48 -30 47 c-34 54 -50 67 -51 41z"/>
<path d="M5453 3013 c-26 -5 -46 -51 -37 -87 6 -25 36 -46 65 -46 18 0 59 49
59 70 0 21 -42 71 -57 69 -4 -1 -18 -4 -30 -6z m55 -25 c7 -7 12 -24 12 -38 0
-31 -17 -50 -45 -50 -28 0 -45 19 -45 50 0 31 17 50 45 50 12 0 26 -5 33 -12z"/>
<path d="M5770 3007 c-21 -11 -25 -20 -25 -57 0 -38 4 -46 28 -60 24 -13 30
-13 55 0 21 12 28 24 30 56 4 57 -38 86 -88 61z m72 -32 c17 -39 -3 -75 -42
-75 -39 0 -59 36 -42 75 9 19 19 25 42 25 23 0 33 -6 42 -25z"/>
<path d="M5962 3008 c-45 -22 -41 -101 5 -119 44 -16 73 -4 73 31 0 26 -3 30
-27 29 -17 -1 -21 -3 -10 -6 9 -2 17 -13 17 -24 0 -17 -6 -20 -31 -17 -63 6
-55 90 9 96 18 2 30 8 27 13 -8 12 -34 11 -63 -3z"/>
<path d="M6607 3009 c-44 -26 -39 -111 8 -123 49 -12 85 16 85 68 0 46 -54 78
-93 55z m70 -39 c10 -20 10 -29 -1 -45 -16 -24 -51 -31 -72 -15 -17 15 -18 62
-2 78 20 20 61 10 75 -18z"/>
<path d="M6788 3009 c-28 -16 -21 -38 17 -61 43 -25 41 -41 -6 -48 -30 -5 -32
-7 -12 -13 29 -10 63 8 63 34 0 12 -12 27 -30 37 -37 21 -39 42 -4 42 14 0 23
4 19 10 -8 13 -25 12 -47 -1z"/>
<path d="M7157 3008 c-7 -5 -3 -8 10 -8 20 0 22 -6 26 -57 l3 -58 2 58 c2 51
4 57 24 57 12 0 18 3 15 7 -9 9 -66 10 -80 1z"/>
<path d="M1142 2958 c-2 -48 1 -59 18 -68 45 -24 76 8 78 83 2 58 -17 44 -20
-15 -3 -49 -5 -53 -30 -56 -29 -3 -34 5 -41 78 -2 22 -4 14 -5 -22z"/>
<path d="M1503 2993 c-3 -10 -12 -33 -19 -52 -18 -42 -17 -61 0 -38 17 22 62
22 70 1 4 -9 9 -15 11 -12 8 8 -36 118 -47 118 -5 0 -11 -8 -15 -17z m32 -40
c5 -19 2 -23 -14 -23 -23 0 -24 3 -15 38 7 26 18 20 29 -15z"/>
<path d="M1640 2950 c0 -71 18 -81 22 -12 l3 47 28 -47 c39 -67 56 -63 56 12
-1 71 -17 81 -21 13 l-3 -48 -28 48 c-40 66 -57 62 -57 -13z"/>
<path d="M1845 2974 c-9 -21 -18 -49 -21 -63 -5 -24 -4 -25 9 -8 18 22 63 22
71 1 4 -9 9 -15 11 -12 8 8 -31 112 -43 116 -6 2 -18 -14 -27 -34z m40 -21 c5
-19 2 -23 -14 -23 -23 0 -24 3 -15 38 7 26 18 20 29 -15z"/>
<path d="M1990 2950 c0 -33 4 -60 10 -60 6 0 10 11 10 25 0 34 13 31 44 -7 28
-35 36 -27 11 9 -13 18 -13 26 -4 41 19 31 4 52 -36 52 l-35 0 0 -60z m64 35
c3 -8 -3 -19 -14 -25 -27 -14 -30 -13 -30 15 0 18 5 25 19 25 10 0 21 -7 25
-15z"/>
<path d="M2292 2949 c3 -59 4 -62 30 -65 15 -1 30 2 33 7 4 5 -8 9 -24 9 -24
0 -31 4 -31 20 0 15 7 20 25 20 14 0 25 5 25 10 0 6 -11 10 -25 10 -18 0 -25
5 -25 19 0 15 8 21 33 24 31 4 31 4 -6 5 l-38 2 3 -61z"/>
<path d="M2560 2956 c0 -50 3 -58 25 -68 19 -9 29 -8 50 6 21 14 25 24 25 66
0 67 -18 64 -22 -2 -3 -47 -6 -53 -27 -56 -29 -5 -37 8 -39 60 -3 63 -12 59
-12 -6z"/>
<path d="M2730 2950 c0 -71 18 -81 22 -12 l3 47 28 -47 c40 -67 57 -63 57 12
0 71 -18 81 -22 13 l-3 -48 -28 48 c-40 66 -57 62 -57 -13z"/>
<path d="M2918 3003 c-2 -5 -1 -33 3 -63 l6 -55 1 63 c2 57 -1 74 -10 55z"/>
<path d="M3022 2950 c12 -33 27 -60 32 -60 6 0 21 27 33 60 12 33 18 60 13 60
-5 0 -16 -24 -26 -52 l-17 -53 -18 40 c-10 22 -18 46 -18 53 -1 6 -5 12 -11
12 -5 0 1 -27 12 -60z"/>
<path d="M3633 2950 c0 -36 2 -50 4 -32 2 17 2 47 0 65 -2 17 -4 3 -4 -33z"/>
<path d="M3861 3005 c0 -5 6 -21 14 -35 8 -14 14 -37 15 -52 0 -16 5 -28 10
-28 6 0 10 9 10 20 0 12 9 39 20 60 11 22 17 40 12 40 -5 0 -14 -11 -20 -25
-11 -23 -32 -35 -32 -17 0 5 -7 17 -15 28 -8 10 -14 15 -14 9z"/>
<path d="M5063 2950 c0 -36 2 -53 4 -37 4 23 9 27 39 27 30 0 34 -3 34 -25 0
-14 5 -25 10 -25 6 0 10 27 10 60 0 33 -4 60 -10 60 -5 0 -10 -11 -10 -25 0
-22 -4 -25 -34 -25 -30 0 -35 4 -39 28 -2 15 -4 -2 -4 -38z"/>
<path d="M5614 2950 c1 -63 2 -65 28 -67 15 -1 30 2 33 8 4 5 -7 9 -24 9 -29
0 -30 1 -34 58 -4 56 -4 56 -3 -8z"/>
<path d="M6111 3005 c0 -5 6 -21 14 -35 8 -14 14 -37 15 -52 0 -16 5 -28 10
-28 6 0 10 9 10 20 0 12 9 39 20 60 11 22 16 40 10 40 -6 0 -15 -11 -20 -25
-9 -23 -30 -35 -30 -17 0 5 -7 17 -15 28 -8 10 -14 15 -14 9z"/>
<path d="M6400 2950 c0 -33 4 -60 10 -60 6 0 10 11 10 25 0 22 4 25 34 25 30
0 35 -4 39 -27 2 -16 4 1 4 37 0 36 -2 53 -4 38 -4 -24 -9 -28 -39 -28 -30 0
-34 3 -34 25 0 14 -4 25 -10 25 -6 0 -10 -27 -10 -60z"/>
<path d="M6921 2951 c1 -34 6 -61 11 -61 4 0 8 8 8 18 0 11 12 22 31 29 25 10
30 16 27 40 -3 25 -8 28 -41 31 l-38 3 2 -60z m64 24 c0 -13 -8 -21 -22 -23
-19 -3 -23 1 -23 23 0 22 4 26 23 23 14 -2 22 -10 22 -23z"/>
<path d="M7073 2950 c0 -36 2 -50 4 -32 2 17 2 47 0 65 -2 17 -4 3 -4 -33z"/>
<path d="M7333 2993 c-3 -10 -12 -33 -19 -52 -18 -42 -17 -61 0 -38 17 22 62
22 70 1 4 -9 9 -14 13 -11 8 8 -37 117 -48 117 -6 0 -12 -8 -16 -17z m32 -40
c5 -19 2 -23 -14 -23 -23 0 -24 3 -15 38 7 26 18 20 29 -15z"/>
<path d="M7472 2948 c3 -60 4 -63 30 -65 15 -1 30 2 33 8 4 5 -5 9 -19 9 -25
0 -26 3 -26 55 0 32 -4 55 -10 55 -7 0 -10 -24 -8 -62z"/>
</g>
</svg>
